<?xml version="1.0" encoding="utf-8"?>
<!-- Generator: Adobe Illustrator 13.0.0, SVG Export Plug-In . SVG Version: 6.00 Build 14948)  -->
<!DOCTYPE svg PUBLIC "-//W3C//DTD SVG 1.1//EN" "http://www.w3.org/Graphics/SVG/1.1/DTD/svg11.dtd">
<svg version="1.1" id="Layer_1" xmlns="http://www.w3.org/2000/svg" xmlns:xlink="http://www.w3.org/1999/xlink" x="0px" y="0px"
	 width="512px" height="512px" viewBox="0 0 512 512" enable-background="new 0 0 512 512" xml:space="preserve">
<g id="Simple_Enterprise">
	<g>
		
			<linearGradient id="SVGID_1_" gradientUnits="userSpaceOnUse" x1="-14.4536" y1="446.4141" x2="-14.4536" y2="-65.2549" gradientTransform="matrix(1 0 0 -1 270 446)">
			<stop  offset="0" style="stop-color:#0090CC"/>
			<stop  offset="1" style="stop-color:#0057A8"/>
		</linearGradient>
		<path fill="url(#SVGID_1_)" d="M511.381,421.312c0,49.675-40.269,89.942-89.942,89.942H89.653
			c-49.674,0-89.942-40.268-89.942-89.942V89.528c0-49.674,40.268-89.942,89.942-89.942h331.785
			c49.674,0,89.942,40.268,89.942,89.942V421.312z"/>
		<g>
			<g>
				<g>
					<path fill="#F2F2F2" d="M431.285,80.276c-67.174-66.462-175.497-65.889-241.966,1.284
						c-66.464,67.176-65.89,175.503,1.283,241.967c67.168,66.466,175.499,65.895,241.963-1.281
						C499.035,255.066,498.458,146.742,431.285,80.276z M346.627,253.116c-24.782,25.046-65.175,25.26-90.213,0.479
						c-25.041-24.774-25.26-65.161-0.472-90.209c24.775-25.047,65.162-25.257,90.204-0.484
						C371.186,187.688,371.404,228.072,346.627,253.116z"/>
				</g>
			</g>
			<path fill="#F2F2F2" d="M95.468,351.65c-14.806,14.968-38.927,15.087-53.891,0.285l0,0
				c-14.963-14.801-15.093-38.925-0.285-53.887L148.5,189.699c14.802-14.962,38.925-15.088,53.886-0.286l0,0
				c14.958,14.8,15.088,38.925,0.286,53.891L95.468,351.65z"/>
			<path fill="#F2F2F2" d="M215.822,470.73c-14.808,14.964-38.938,15.092-53.895,0.29l0,0c-14.96-14.804-15.092-38.929-0.284-53.892
				L268.844,308.78c14.807-14.965,38.932-15.092,53.896-0.285l0,0c14.958,14.801,15.092,38.929,0.29,53.89L215.822,470.73z"/>
			<path fill="#F2F2F2" d="M221.25,341.539c-14.32,14.475-37.663,14.602-52.133,0.283l0,0
				c-14.473-14.324-14.598-37.663-0.274-52.138l103.708-104.817c14.326-14.476,37.667-14.604,52.138-0.282l0,0
				c14.474,14.321,14.594,37.656,0.271,52.139L221.25,341.539z"/>
		</g>
	</g>
</g>
</svg>
