<?xml version="1.0" encoding="UTF-8" standalone="no"?>
<!-- Created with Inkscape (http://www.inkscape.org/) -->

<svg
   xmlns:dc="http://purl.org/dc/elements/1.1/"
   xmlns:cc="http://creativecommons.org/ns#"
   xmlns:rdf="http://www.w3.org/1999/02/22-rdf-syntax-ns#"
   xmlns:svg="http://www.w3.org/2000/svg"
   xmlns="http://www.w3.org/2000/svg"
   xmlns:sodipodi="http://sodipodi.sourceforge.net/DTD/sodipodi-0.dtd"
   xmlns:inkscape="http://www.inkscape.org/namespaces/inkscape"
   width="512"
   height="128"
   viewBox="0 0 512.00001 128"
   id="svg2"
   version="1.1"
   inkscape:version="0.91 r13725"
   sodipodi:docname="Email.svg">
  <defs
     id="defs4">
    <filter
       inkscape:label="Cross Blur"
       inkscape:menu="Bumps"
       inkscape:menu-tooltip="Canvas texture with an HSL sensitive height map"
       style="color-interpolation-filters:sRGB;"
       id="filter3506">
      <feColorMatrix
         type="saturate"
         in="SourceGraphic"
         values="0"
         id="feColorMatrix3508" />
      <feColorMatrix
         values="3 0 0 0 -0.3 0 3 0 0 -0.3 0 0 3 0 -0.3 0 0 0 1 0"
         result="result0"
         id="feColorMatrix3510" />
      <feTurbulence
         baseFrequency="0.111"
         numOctaves="2"
         type="fractalNoise"
         id="feTurbulence3512" />
      <feColorMatrix
         values="0 0 0 0 0 0 0 0 0 0 0 0 0 0 0 0 0 0 255 -200"
         id="feColorMatrix3514" />
      <feGaussianBlur
         stdDeviation="1"
         id="feGaussianBlur3516" />
      <feComposite
         in2="result0"
         operator="atop"
         id="feComposite3518"
         result="fbSourceGraphic" />
      <feColorMatrix
         result="fbSourceGraphicAlpha"
         in="fbSourceGraphic"
         values="0 0 0 -1 0 0 0 0 -1 0 0 0 0 -1 0 0 0 0 1 0"
         id="feColorMatrix3528" />
      <feTurbulence
         id="feTurbulence3530"
         type="turbulence"
         result="result1"
         numOctaves="7"
         seed="300"
         baseFrequency="0.2"
         in="fbSourceGraphic" />
      <feDisplacementMap
         id="feDisplacementMap3532"
         in2="result1"
         xChannelSelector="R"
         result="result7" />
      <feBlend
         id="feBlend3534"
         in2="fbSourceGraphic"
         in="result7"
         mode="screen"
         result="fbSourceGraphic" />
      <feColorMatrix
         id="feColorMatrix3536"
         result="fbSourceGraphicAlpha"
         values="1 0 0 -1 0 1 0 1 -1 0 1 0 0 -1 0 -0.8 -1 0 4 -2.5 " />
      <feGaussianBlur
         id="feGaussianBlur3538"
         result="result0"
         in="fbSourceGraphicAlpha"
         stdDeviation="0.5" />
      <feSpecularLighting
         id="feSpecularLighting3540"
         result="result6"
         surfaceScale="5"
         specularConstant="1"
         specularExponent="5">
        <feDistantLight
           id="feDistantLight3542"
           azimuth="225"
           elevation="35" />
      </feSpecularLighting>
      <feComposite
         id="feComposite3544"
         in2="fbSourceGraphic"
         k3="1"
         k2="0.5"
         operator="arithmetic"
         result="result4" />
      <feComposite
         id="feComposite3546"
         in2="fbSourceGraphic"
         operator="in"
         result="fbSourceGraphic"
         in="result4" />
      <feColorMatrix
         result="fbSourceGraphicAlpha"
         in="fbSourceGraphic"
         values="0 0 0 -1 0 0 0 0 -1 0 0 0 0 -1 0 0 0 0 1 0"
         id="feColorMatrix3556" />
      <feColorMatrix
         id="feColorMatrix3558"
         in="fbSourceGraphic"
         values="1 0 0 0 0 0 1 0 0 0 0 0 1 0 0 -0.2125 -0.7154 -0.0721 1 0 "
         result="colormatrix" />
      <feComposite
         id="feComposite3560"
         in2="colormatrix"
         in="fbSourceGraphic"
         operator="arithmetic"
         k2="1"
         k3="0"
         k4="0"
         result="composite" />
      <feGaussianBlur
         id="feGaussianBlur3562"
         stdDeviation="0.54 0.01"
         result="blur1" />
      <feGaussianBlur
         id="feGaussianBlur3564"
         in="composite"
         stdDeviation="0.01 1.74"
         result="blur2" />
      <feBlend
         id="feBlend3566"
         in2="blur1"
         in="blur2"
         mode="darken"
         result="blend" />
    </filter>
  </defs>
  <sodipodi:namedview
     id="base"
     pagecolor="#ffffff"
     bordercolor="#666666"
     borderopacity="1.0"
     inkscape:pageopacity="0.0"
     inkscape:pageshadow="2"
     inkscape:zoom="0.35"
     inkscape:cx="-180.71429"
     inkscape:cy="-51.428571"
     inkscape:document-units="px"
     inkscape:current-layer="layer1"
     showgrid="false"
     units="px"
     inkscape:window-width="1440"
     inkscape:window-height="775"
     inkscape:window-x="0"
     inkscape:window-y="0"
     inkscape:window-maximized="1" />
  <metadata
     id="metadata7">
    <rdf:RDF>
      <cc:Work
         rdf:about="">
        <dc:format>image/svg+xml</dc:format>
        <dc:type
           rdf:resource="http://purl.org/dc/dcmitype/StillImage" />
        <dc:title></dc:title>
      </cc:Work>
    </rdf:RDF>
  </metadata>
  <g
     inkscape:label="Layer 1"
     inkscape:groupmode="layer"
     id="layer1"
     transform="translate(0,-924.36216)">
    <g
       transform="matrix(0.96398282,0.12318098,-0.23298012,1.8232428,20.337257,880.02083)"
       style="font-style:normal;font-variant:normal;font-weight:normal;font-stretch:normal;font-size:38.75px;line-height:125%;font-family:Sans;-inkscape-font-specification:'Sans, Normal';text-align:start;letter-spacing:0px;word-spacing:0px;writing-mode:lr-tb;text-anchor:start;fill:#000000;fill-opacity:1;stroke:none;stroke-width:1px;stroke-linecap:butt;stroke-linejoin:miter;stroke-opacity:1;filter:url(#filter3506)"
       id="flowRoot3336">
      <path
         d="m 17.161255,31.771857 0,3.292236 q -1.47583,-0.756835 -3.065186,-1.135253 -1.589355,-0.378418 -3.292236,-0.378418 -2.5921631,0 -3.8977051,0.794677 -1.2866211,0.794678 -1.2866211,2.384034 0,1.210937 0.9271241,1.91101 0.927124,0.681153 3.7274171,1.305542 l 1.192016,0.264893 q 3.708497,0.794678 5.26001,2.251587 1.570435,1.437988 1.570435,4.030151 0,2.95166 -2.346192,4.673462 -2.32727,1.721802 -6.4141842,1.721802 -1.7028808,0 -3.5571289,-0.340576 -1.8353271,-0.321656 -3.8787842,-0.983887 l 0,-3.594971 q 1.9299317,1.002808 3.8031006,1.513672 1.873169,0.491943 3.7084961,0.491943 2.4597166,0 3.7841796,-0.832519 1.324463,-0.851441 1.324463,-2.384033 0,-1.419068 -0.964966,-2.175904 -0.946045,-0.756836 -4.1815184,-1.456909 L 8.3630371,42.840583 Q 5.1275635,42.15943 3.6895752,40.759284 2.2515869,39.340217 2.2515869,36.8805 q 0,-2.989502 2.1191406,-4.6167 2.1191407,-1.627197 6.0168455,-1.627197 1.929932,0 3.632813,0.283814 1.702881,0.283813 3.140869,0.85144 z"
         style="font-style:normal;font-variant:normal;font-weight:normal;font-stretch:normal;font-size:38.75px;line-height:125%;font-family:Sans;-inkscape-font-specification:'Sans, Normal';text-align:start;writing-mode:lr-tb;text-anchor:start"
         id="path3364" />
      <path
         d="m 41.985474,40.872809 0,1.702881 -16.00708,0 q 0.22705,3.594971 2.156982,5.487061 1.948853,1.873169 5.411377,1.873169 2.005615,0 3.878784,-0.491944 1.89209,-0.491943 3.746338,-1.47583 l 0,3.292237 q -1.873169,0.794677 -3.840942,1.210937 -1.967774,0.41626 -3.99231,0.41626 -5.070801,0 -8.041382,-2.95166 -2.95166,-2.951661 -2.95166,-7.98462 0,-5.203247 2.800293,-8.249511 2.819214,-3.065186 7.58728,-3.065186 4.276123,0 6.754761,2.762451 2.497559,2.743531 2.497559,7.473755 z m -3.481446,-1.021728 q -0.03784,-2.857056 -1.608276,-4.559937 -1.551514,-1.702881 -4.124756,-1.702881 -2.913818,0 -4.673462,1.646119 -1.740722,1.646118 -2.005615,4.63562 l 12.412109,-0.01892 z"
         style="font-style:normal;font-variant:normal;font-weight:normal;font-stretch:normal;font-size:38.75px;line-height:125%;font-family:Sans;-inkscape-font-specification:'Sans, Normal';text-align:start;writing-mode:lr-tb;text-anchor:start"
         id="path3366" />
      <path
         d="m 45.126343,31.147467 3.689575,0 6.622314,17.785645 6.622315,-17.785645 3.689575,0 -7.946777,21.191407 -4.730225,0 -7.946777,-21.191407 z"
         style="font-style:normal;font-variant:normal;font-weight:normal;font-stretch:normal;font-size:38.75px;line-height:125%;font-family:Sans;-inkscape-font-specification:'Sans, Normal';text-align:start;writing-mode:lr-tb;text-anchor:start"
         id="path3368" />
      <path
         d="m 88.682251,40.872809 0,1.702881 -16.00708,0 q 0.227051,3.594971 2.156982,5.487061 1.948853,1.873169 5.411377,1.873169 2.005616,0 3.878784,-0.491944 1.89209,-0.491943 3.746338,-1.47583 l 0,3.292237 q -1.873169,0.794677 -3.840942,1.210937 -1.967773,0.41626 -3.99231,0.41626 -5.0708,0 -8.041381,-2.95166 -2.951661,-2.951661 -2.951661,-7.98462 0,-5.203247 2.800293,-8.249511 2.819214,-3.065186 7.587281,-3.065186 4.276123,0 6.75476,2.762451 2.497559,2.743531 2.497559,7.473755 z m -3.481445,-1.021728 q -0.03784,-2.857056 -1.608277,-4.559937 -1.551513,-1.702881 -4.124756,-1.702881 -2.913818,0 -4.673461,1.646119 -1.740723,1.646118 -2.005616,4.63562 l 12.41211,-0.01892 z"
         style="font-style:normal;font-variant:normal;font-weight:normal;font-stretch:normal;font-size:38.75px;line-height:125%;font-family:Sans;-inkscape-font-specification:'Sans, Normal';text-align:start;writing-mode:lr-tb;text-anchor:start"
         id="path3370" />
      <path
         d="m 111.93604,39.548346 0,12.790528 -3.48145,0 0,-12.677002 q 0,-3.008423 -1.1731,-4.503174 -1.17309,-1.494751 -3.51928,-1.494751 -2.81922,0 -4.446414,1.797485 -1.627197,1.797486 -1.627197,4.900513 l 0,11.976929 -3.500367,0 0,-21.191407 3.500367,0 0,3.292237 q 1.248779,-1.911011 2.932741,-2.857056 1.70288,-0.946045 3.91662,-0.946045 3.65174,0 5.52491,2.270508 1.87317,2.251587 1.87317,6.641235 z"
         style="font-style:normal;font-variant:normal;font-weight:normal;font-stretch:normal;font-size:38.75px;line-height:125%;font-family:Sans;-inkscape-font-specification:'Sans, Normal';text-align:start;writing-mode:lr-tb;text-anchor:start"
         id="path3372" />
      <path
         d="m 134.13025,41.762092 q 0,-3.840943 -1.58936,-6.016846 -1.57043,-2.194824 -4.33288,-2.194824 -2.76245,0 -4.35181,2.194824 -1.57043,2.175903 -1.57043,6.016846 0,3.840942 1.57043,6.035766 1.58936,2.175903 4.35181,2.175903 2.76245,0 4.33288,-2.175903 1.58936,-2.194824 1.58936,-6.035766 z M 122.28577,34.36402 q 1.09741,-1.89209 2.76245,-2.800293 1.68396,-0.927124 4.01123,-0.927124 3.85986,0 6.26282,3.065186 2.42187,3.065185 2.42187,8.060303 0,4.995117 -2.42187,8.060302 -2.40296,3.065186 -6.26282,3.065186 -2.32727,0 -4.01123,-0.908203 -1.66504,-0.927124 -2.76245,-2.819214 l 0,3.178711 -3.50037,0 0,-29.440918 3.50037,0 0,11.466064 z"
         style="font-style:normal;font-variant:normal;font-weight:normal;font-stretch:normal;font-size:38.75px;line-height:125%;font-family:Sans;-inkscape-font-specification:'Sans, Normal';text-align:start;writing-mode:lr-tb;text-anchor:start"
         id="path3374" />
      <path
         d="m 143.51501,31.147467 3.48145,0 0,21.191407 -3.48145,0 0,-21.191407 z m 0,-8.249511 3.48145,0 0,4.408569 -3.48145,0 0,-4.408569 z"
         style="font-style:normal;font-variant:normal;font-weight:normal;font-stretch:normal;font-size:38.75px;line-height:125%;font-family:Sans;-inkscape-font-specification:'Sans, Normal';text-align:start;writing-mode:lr-tb;text-anchor:start"
         id="path3376" />
      <path
         d="m 157.70569,25.130622 0,6.016845 7.17102,0 0,2.705689 -7.17102,0 0,11.503906 q 0,2.592163 0.70007,3.330078 0.719,0.737915 2.8949,0.737915 l 3.57605,0 0,2.913819 -3.57605,0 q -4.03015,0 -5.56274,-1.494751 -1.5326,-1.513672 -1.5326,-5.487061 l 0,-11.503906 -2.55432,0 0,-2.705689 2.55432,0 0,-6.016845 3.50037,0 z"
         style="font-style:normal;font-variant:normal;font-weight:normal;font-stretch:normal;font-size:38.75px;line-height:125%;font-family:Sans;-inkscape-font-specification:'Sans, Normal';text-align:start;writing-mode:lr-tb;text-anchor:start"
         id="path3378" />
      <path
         d="m 182.98401,31.771857 0,3.292236 q -1.47583,-0.756835 -3.06519,-1.135253 -1.58935,-0.378418 -3.29223,-0.378418 -2.59217,0 -3.89771,0.794677 -1.28662,0.794678 -1.28662,2.384034 0,1.210937 0.92712,1.91101 0.92713,0.681153 3.72742,1.305542 l 1.19202,0.264893 q 3.70849,0.794678 5.26001,2.251587 1.57043,1.437988 1.57043,4.030151 0,2.95166 -2.34619,4.673462 -2.32727,1.721802 -6.41418,1.721802 -1.70288,0 -3.55713,-0.340576 -1.83533,-0.321656 -3.87879,-0.983887 l 0,-3.594971 q 1.92994,1.002808 3.8031,1.513672 1.87317,0.491943 3.7085,0.491943 2.45972,0 3.78418,-0.832519 1.32446,-0.851441 1.32446,-2.384033 0,-1.419068 -0.96496,-2.175904 -0.94605,-0.756836 -4.18152,-1.456909 l -1.21094,-0.283813 q -3.23547,-0.681153 -4.67346,-2.081299 -1.43799,-1.419067 -1.43799,-3.878784 0,-2.989502 2.11914,-4.6167 2.11914,-1.627197 6.01685,-1.627197 1.92993,0 3.63281,0.283814 1.70288,0.283813 3.14087,0.85144 z"
         style="font-style:normal;font-variant:normal;font-weight:normal;font-stretch:normal;font-size:38.75px;line-height:125%;font-family:Sans;-inkscape-font-specification:'Sans, Normal';text-align:start;writing-mode:lr-tb;text-anchor:start"
         id="path3380" />
      <path
         d="m 193.12561,25.130622 0,6.016845 7.17102,0 0,2.705689 -7.17102,0 0,11.503906 q 0,2.592163 0.70007,3.330078 0.719,0.737915 2.8949,0.737915 l 3.57605,0 0,2.913819 -3.57605,0 q -4.03015,0 -5.56274,-1.494751 -1.5326,-1.513672 -1.5326,-5.487061 l 0,-11.503906 -2.55432,0 0,-2.705689 2.55432,0 0,-6.016845 3.50037,0 z"
         style="font-style:normal;font-variant:normal;font-weight:normal;font-stretch:normal;font-size:38.75px;line-height:125%;font-family:Sans;-inkscape-font-specification:'Sans, Normal';text-align:start;writing-mode:lr-tb;text-anchor:start"
         id="path3382" />
      <path
         d="m 223.02063,40.872809 0,1.702881 -16.00708,0 q 0.22705,3.594971 2.15698,5.487061 1.94885,1.873169 5.41138,1.873169 2.00561,0 3.87878,-0.491944 1.89209,-0.491943 3.74634,-1.47583 l 0,3.292237 q -1.87317,0.794677 -3.84094,1.210937 -1.96777,0.41626 -3.99231,0.41626 -5.0708,0 -8.04138,-2.95166 -2.95166,-2.951661 -2.95166,-7.98462 0,-5.203247 2.80029,-8.249511 2.81921,-3.065186 7.58728,-3.065186 4.27612,0 6.75476,2.762451 2.49756,2.743531 2.49756,7.473755 z m -3.48145,-1.021728 q -0.0378,-2.857056 -1.60827,-4.559937 -1.55152,-1.702881 -4.12476,-1.702881 -2.91382,0 -4.67346,1.646119 -1.74072,1.646118 -2.00561,4.63562 l 12.4121,-0.01892 z"
         style="font-style:normal;font-variant:normal;font-weight:normal;font-stretch:normal;font-size:38.75px;line-height:125%;font-family:Sans;-inkscape-font-specification:'Sans, Normal';text-align:start;writing-mode:lr-tb;text-anchor:start"
         id="path3384" />
      <path
         d="m 243.9093,31.961066 0,3.254395 q -1.47583,-0.813599 -2.97058,-1.210938 -1.47583,-0.41626 -2.9895,-0.41626 -3.38684,0 -5.26001,2.156983 -1.87317,2.138061 -1.87317,6.016846 0,3.878784 1.87317,6.035766 1.87317,2.138062 5.26001,2.138062 1.51367,0 2.9895,-0.397339 1.49475,-0.41626 2.97058,-1.229859 l 0,3.216553 q -1.45691,0.681152 -3.02734,1.021729 -1.55152,0.340576 -3.31116,0.340576 -4.78699,0 -7.6062,-3.008423 -2.81921,-3.008423 -2.81921,-8.117065 0,-5.184327 2.83813,-8.154908 2.85706,-2.970581 7.81433,-2.970581 1.60828,0 3.14087,0.340576 1.53259,0.321656 2.97058,0.983887 z"
         style="font-style:normal;font-variant:normal;font-weight:normal;font-stretch:normal;font-size:38.75px;line-height:125%;font-family:Sans;-inkscape-font-specification:'Sans, Normal';text-align:start;writing-mode:lr-tb;text-anchor:start"
         id="path3386" />
      <path
         d="m 267.5415,39.548346 0,12.790528 -3.48144,0 0,-12.677002 q 0,-3.008423 -1.1731,-4.503174 -1.17309,-1.494751 -3.51928,-1.494751 -2.81922,0 -4.44642,1.797485 -1.62719,1.797486 -1.62719,4.900513 l 0,11.976929 -3.50037,0 0,-29.440918 3.50037,0 0,11.541748 q 1.24878,-1.911011 2.93274,-2.857056 1.70288,-0.946045 3.91662,-0.946045 3.65174,0 5.5249,2.270508 1.87317,2.251587 1.87317,6.641235 z"
         style="font-style:normal;font-variant:normal;font-weight:normal;font-stretch:normal;font-size:38.75px;line-height:125%;font-family:Sans;-inkscape-font-specification:'Sans, Normal';text-align:start;writing-mode:lr-tb;text-anchor:start"
         id="path3388" />
      <path
         d="m 285.28931,42.178351 q 0,2.705689 1.34338,4.257202 1.34338,1.532593 3.68958,1.532593 2.32727,0 3.65173,-1.551513 1.34338,-1.551514 1.34338,-4.238282 0,-2.648926 -1.3623,-4.200439 -1.36231,-1.570435 -3.67066,-1.570435 -2.28942,0 -3.65173,1.551514 -1.34338,1.551514 -1.34338,4.21936 z M 295.6012,47.8357 q -1.13526,1.456909 -2.61109,2.156982 -1.45691,0.681153 -3.40576,0.681153 -3.25439,0 -5.29785,-2.346192 -2.02454,-2.365112 -2.02454,-6.149292 0,-3.784179 2.04346,-6.149292 2.04346,-2.365112 5.27893,-2.365112 1.94885,0 3.42468,0.718994 1.47583,0.700073 2.59217,2.138062 l 0,-2.478638 2.70568,0 0,13.925781 q 2.76246,-0.41626 4.31397,-2.516479 1.57043,-2.119141 1.57043,-5.46814 0,-2.024536 -0.60546,-3.803101 -0.58655,-1.778564 -1.79749,-3.292236 -1.96777,-2.478638 -4.80591,-3.78418 -2.81921,-1.324462 -6.14929,-1.324462 -2.32727,0 -4.46533,0.624389 -2.13806,0.605469 -3.95447,1.816406 -2.97058,1.929932 -4.65454,5.070801 -1.66504,3.121948 -1.66504,6.773682 0,3.008423 1.07849,5.638428 1.09741,2.630005 3.15979,4.63562 1.9867,1.967773 4.59778,2.989502 2.61108,1.040649 5.58166,1.040649 2.4408,0 4.78699,-0.832519 2.36511,-0.813599 4.33289,-2.346192 l 1.70288,2.10022 q -2.36511,1.835327 -5.16541,2.800293 -2.78137,0.983887 -5.65735,0.983887 -3.50036,0 -6.60339,-1.24878 -3.10303,-1.229858 -5.5249,-3.59497 -2.42188,-2.365113 -3.68958,-5.46814 -1.2677,-3.121948 -1.2677,-6.697998 0,-3.443604 1.28662,-6.565552 1.28663,-3.121948 3.67066,-5.48706 2.44079,-2.402955 5.63843,-3.670655 3.19763,-1.286621 6.77368,-1.286621 4.01123,0 7.43591,1.646118 3.4436,1.646119 5.77088,4.673462 1.41906,1.854248 2.15698,4.030152 0.75683,2.175903 0.75683,4.503173 0,4.976197 -3.00842,7.852173 -3.00842,2.875977 -8.30627,2.989502 l 0,-2.913818 z"
         style="font-style:normal;font-variant:normal;font-weight:normal;font-stretch:normal;font-size:38.75px;line-height:125%;font-family:Sans;-inkscape-font-specification:'Sans, Normal';text-align:start;writing-mode:lr-tb;text-anchor:start"
         id="path3390" />
      <path
         d="m 327.2937,41.497199 q 0,-3.78418 -1.57043,-5.865479 -1.55152,-2.081298 -4.37073,-2.081298 -2.80029,0 -4.37073,2.081298 -1.55151,2.081299 -1.55151,5.865479 0,3.765259 1.55151,5.846558 1.57044,2.081298 4.37073,2.081298 2.81921,0 4.37073,-2.081298 1.57043,-2.081299 1.57043,-5.846558 z m 3.48145,8.21167 q 0,5.411377 -2.40296,8.041382 -2.40295,2.648925 -7.36023,2.648925 -1.83532,0 -3.46252,-0.283813 -1.6272,-0.264893 -3.15979,-0.83252 l 0,-3.38684 q 1.53259,0.832519 3.02734,1.229858 1.49475,0.397339 3.04627,0.397339 3.42468,0 5.12756,-1.797485 1.70288,-1.778565 1.70288,-5.392456 l 0,-1.721802 q -1.07849,1.873169 -2.76245,2.800293 -1.68396,0.927124 -4.03015,0.927124 -3.89771,0 -6.28174,-2.970581 -2.38403,-2.970581 -2.38403,-7.871094 0,-4.919434 2.38403,-7.890015 2.38403,-2.970581 6.28174,-2.970581 2.34619,0 4.03015,0.927124 1.68396,0.927124 2.76245,2.800293 l 0,-3.216553 3.48145,0 0,18.561402 z"
         style="font-style:normal;font-variant:normal;font-weight:normal;font-stretch:normal;font-size:38.75px;line-height:125%;font-family:Sans;-inkscape-font-specification:'Sans, Normal';text-align:start;writing-mode:lr-tb;text-anchor:start"
         id="path3392" />
      <path
         d="m 354.44519,35.215461 q 1.30554,-2.346192 3.12195,-3.462525 1.8164,-1.116333 4.27612,-1.116333 3.31116,0 5.10864,2.327271 1.79749,2.308349 1.79749,6.584472 l 0,12.790528 -3.50037,0 0,-12.677002 q 0,-3.046265 -1.07849,-4.522095 -1.07849,-1.47583 -3.29223,-1.47583 -2.70569,0 -4.27613,1.797485 -1.57043,1.797486 -1.57043,4.900513 l 0,11.976929 -3.50037,0 0,-12.677002 q 0,-3.065186 -1.07849,-4.522095 -1.07849,-1.47583 -3.33008,-1.47583 -2.66784,0 -4.23828,1.816406 -1.57043,1.797486 -1.57043,4.881592 l 0,11.976929 -3.50037,0 0,-21.191407 3.50037,0 0,3.292237 q 1.19201,-1.948853 2.85705,-2.875977 1.66504,-0.927124 3.95447,-0.927124 2.30835,0 3.91663,1.173096 1.62719,1.173096 2.40295,3.405762 z"
         style="font-style:normal;font-variant:normal;font-weight:normal;font-stretch:normal;font-size:38.75px;line-height:125%;font-family:Sans;-inkscape-font-specification:'Sans, Normal';text-align:start;writing-mode:lr-tb;text-anchor:start"
         id="path3394" />
      <path
         d="m 385.26733,41.686408 q -4.21936,0 -5.84655,0.964966 -1.6272,0.964966 -1.6272,3.292236 0,1.854248 1.21094,2.95166 1.22985,1.078491 3.33007,1.078491 2.8949,0 4.63562,-2.043457 1.75965,-2.062378 1.75965,-5.468139 l 0,-0.775757 -3.46253,0 z m 6.94397,-1.437988 0,12.090454 -3.48144,0 0,-3.216553 q -1.19202,1.929932 -2.97058,2.857056 -1.77857,0.908203 -4.35181,0.908203 -3.25439,0 -5.18433,-1.816406 -1.91101,-1.835328 -1.91101,-4.900513 0,-3.57605 2.38404,-5.392456 2.40295,-1.816406 7.1521,-1.816406 l 4.88159,0 0,-0.340577 q 0,-2.402954 -1.58936,-3.708496 -1.57043,-1.324463 -4.42749,-1.324463 -1.8164,0 -3.53821,0.435181 -1.7218,0.435181 -3.31115,1.305542 l 0,-3.216553 q 1.91101,-0.737915 3.70849,-1.097412 1.79749,-0.378418 3.50037,-0.378418 4.59778,0 6.86829,2.384033 2.2705,2.384034 2.2705,7.227784 z"
         style="font-style:normal;font-variant:normal;font-weight:normal;font-stretch:normal;font-size:38.75px;line-height:125%;font-family:Sans;-inkscape-font-specification:'Sans, Normal';text-align:start;writing-mode:lr-tb;text-anchor:start"
         id="path3396" />
      <path
         d="m 399.47693,31.147467 3.48144,0 0,21.191407 -3.48144,0 0,-21.191407 z m 0,-8.249511 3.48144,0 0,4.408569 -3.48144,0 0,-4.408569 z"
         style="font-style:normal;font-variant:normal;font-weight:normal;font-stretch:normal;font-size:38.75px;line-height:125%;font-family:Sans;-inkscape-font-specification:'Sans, Normal';text-align:start;writing-mode:lr-tb;text-anchor:start"
         id="path3398" />
      <path
         d="m 410.224,22.897956 3.48144,0 0,29.440918 -3.48144,0 0,-29.440918 z"
         style="font-style:normal;font-variant:normal;font-weight:normal;font-stretch:normal;font-size:38.75px;line-height:125%;font-family:Sans;-inkscape-font-specification:'Sans, Normal';text-align:start;writing-mode:lr-tb;text-anchor:start"
         id="path3400" />
      <path
         d="m 421.46301,47.532966 3.99231,0 0,4.805908 -3.99231,0 0,-4.805908 z"
         style="font-style:normal;font-variant:normal;font-weight:normal;font-stretch:normal;font-size:38.75px;line-height:125%;font-family:Sans;-inkscape-font-specification:'Sans, Normal';text-align:start;writing-mode:lr-tb;text-anchor:start"
         id="path3402" />
      <path
         d="m 448.55774,31.961066 0,3.254395 q -1.47583,-0.813599 -2.97058,-1.210938 -1.47583,-0.41626 -2.9895,-0.41626 -3.38684,0 -5.26001,2.156983 -1.87317,2.138061 -1.87317,6.016846 0,3.878784 1.87317,6.035766 1.87317,2.138062 5.26001,2.138062 1.51367,0 2.9895,-0.397339 1.49475,-0.41626 2.97058,-1.229859 l 0,3.216553 q -1.45691,0.681152 -3.02734,1.021729 -1.55152,0.340576 -3.31116,0.340576 -4.78699,0 -7.6062,-3.008423 -2.81922,-3.008423 -2.81922,-8.117065 0,-5.184327 2.83814,-8.154908 2.85705,-2.970581 7.81433,-2.970581 1.60828,0 3.14087,0.340576 1.53259,0.321656 2.97058,0.983887 z"
         style="font-style:normal;font-variant:normal;font-weight:normal;font-stretch:normal;font-size:38.75px;line-height:125%;font-family:Sans;-inkscape-font-specification:'Sans, Normal';text-align:start;writing-mode:lr-tb;text-anchor:start"
         id="path3404" />
      <path
         d="m 462.78625,33.588263 q -2.80029,0 -4.42749,2.194825 -1.62719,2.175903 -1.62719,5.979004 0,3.8031 1.60827,5.997924 1.6272,2.175904 4.44641,2.175904 2.78138,0 4.40857,-2.194825 1.6272,-2.194824 1.6272,-5.979003 0,-3.765259 -1.6272,-5.960083 -1.62719,-2.213746 -4.40857,-2.213746 z m 0,-2.95166 q 4.54102,0 7.13318,2.95166 2.59217,2.951661 2.59217,8.173829 0,5.203247 -2.59217,8.173828 -2.59216,2.95166 -7.13318,2.95166 -4.55993,0 -7.15209,-2.95166 -2.57325,-2.970581 -2.57325,-8.173828 0,-5.222168 2.57325,-8.173829 2.59216,-2.95166 7.15209,-2.95166 z"
         style="font-style:normal;font-variant:normal;font-weight:normal;font-stretch:normal;font-size:38.75px;line-height:125%;font-family:Sans;-inkscape-font-specification:'Sans, Normal';text-align:start;writing-mode:lr-tb;text-anchor:start"
         id="path3406" />
      <path
         d="m 494.76257,35.215461 q 1.30555,-2.346192 3.12195,-3.462525 1.81641,-1.116333 4.27612,-1.116333 3.31116,0 5.10865,2.327271 1.79748,2.308349 1.79748,6.584472 l 0,12.790528 -3.50036,0 0,-12.677002 q 0,-3.046265 -1.07849,-4.522095 -1.0785,-1.47583 -3.29224,-1.47583 -2.70569,0 -4.27612,1.797485 -1.57044,1.797486 -1.57044,4.900513 l 0,11.976929 -3.50037,0 0,-12.677002 q 0,-3.065186 -1.07849,-4.522095 -1.07849,-1.47583 -3.33007,-1.47583 -2.66785,0 -4.23829,1.816406 -1.57043,1.797486 -1.57043,4.881592 l 0,11.976929 -3.50037,0 0,-21.191407 3.50037,0 0,3.292237 q 1.19202,-1.948853 2.85706,-2.875977 1.66503,-0.927124 3.95446,-0.927124 2.30835,0 3.91663,1.173096 1.6272,1.173096 2.40295,3.405762 z"
         style="font-style:normal;font-variant:normal;font-weight:normal;font-stretch:normal;font-size:38.75px;line-height:125%;font-family:Sans;-inkscape-font-specification:'Sans, Normal';text-align:start;writing-mode:lr-tb;text-anchor:start"
         id="path3408" />
    </g>
  </g>
</svg>
